<?xml version="1.0" encoding="UTF-8"?><svg id="_レイヤー_2" xmlns="http://www.w3.org/2000/svg" width="78.97422" height="76.56881" viewBox="0 0 78.97422 76.56881"><defs><style>.cls-1{fill:none;stroke:#00236d;stroke-miterlimit:10;stroke-width:4.53535px;}</style></defs><g id="design"><polyline class="cls-1" points="17.82375 17.38538 19.22924 6.82484 8.66869 5.41935"/><polyline class="cls-1" points="29.34735 62.40546 19.22924 65.74076 22.56454 75.85888"/><polyline class="cls-1" points="62.23446 30.71354 70.25192 37.72929 77.26767 29.71183"/><path class="cls-1" d="M27.2773,3.46893c2.90749-.79386,5.92003-1.20125,8.9595-1.20125,18.66014,0,34.01512,15.35498,34.01512,34.01512"/><path class="cls-1" d="M12.29079,60.44085c-2.13783-2.11907-3.99414-4.52155-5.51195-7.15049C-2.55124,37.1302,3.06908,16.15491,19.22924,6.82484"/><path class="cls-1" d="M69.13468,44.92872c-.76624,2.91555-1.91987,5.72882-3.43992,8.36164-9.33007,16.16016-30.30536,21.78047-46.46552,12.4504"/></g></svg>