<?xml version="1.0" encoding="UTF-8"?><svg id="_レイヤー_2" xmlns="http://www.w3.org/2000/svg" width="71" height="63.00999" viewBox="0 0 71 63.00999"><defs><style>.cls-1,.cls-2{fill:#00236d;}.cls-3{fill:none;}.cls-3,.cls-2{stroke:#fff;stroke-miterlimit:10;}</style></defs><g id="_デザイン"><circle class="cls-1" cx="35.51044" cy="25.15997" r="24.65997"/><ellipse class="cls-3" cx="35.51044" cy="25.15997" rx="14.79598" ry="24.65997"/><line class="cls-3" x1="35.51044" y1=".5" x2="35.51044" y2="49.81993"/><path class="cls-3" d="M15.96181,10.13021c13.07049,4.40941,26.14098,4.40941,39.2115,0"/><path class="cls-3" d="M4.26663,22.52008c20.86727,7.03971,41.73454,7.03971,62.60185,0"/><path class="cls-3" d="M13.88907,37.94665c14.45231,4.87558,28.90463,4.87558,43.35697,0"/><path class="cls-2" d="M59.78005,36.95718l5.25108-2.97515v-12.78385c0-2.10048,2.27-3.4166,4.0929-2.37302h0c.8509.48713,1.37585,1.39255,1.37586,2.37302l.00011,19.04039c0,1.56297-.75715,3.02578-2.03889,3.92022-3.47495,2.42495-9.21093,6.73507-11.83646,8.71934-.87829.66377-1.39008,1.6977-1.39008,2.7986v6.83326h-12.34638v-15.33708c0-4.07029,2.51395-7.7176,6.3178-9.16605l7.82479-2.97955c1.08293-.38276,2.27001.19213,2.64117,1.27909h0c.35094,1.02776-.15456,2.15166-1.15636,2.57099l-7.22965,3.02618"/><path class="cls-2" d="M11.21995,36.95718l-5.25108-2.97515v-12.78385c0-2.10048-2.27-3.4166-4.0929-2.37302h0c-.8509.48713-1.37585,1.39255-1.37586,2.37302l-.00011,19.04039c0,1.56297.75715,3.02578,2.03889,3.92022,3.47495,2.42495,9.21093,6.73507,11.83646,8.71934.87829.66377,1.39008,1.6977,1.39008,2.7986v6.83326s12.34638,0,12.34638,0v-15.33708c0-4.07029-2.51395-7.7176-6.3178-9.16605l-7.82479-2.97955c-1.08293-.38276-2.27001.19213-2.64117,1.27909h0c-.35094,1.02776.15456,2.15166,1.15636,2.57099l7.22965,3.02618"/></g></svg>