<?xml version="1.0" encoding="UTF-8"?><svg id="_レイヤー_2" xmlns="http://www.w3.org/2000/svg" width="49.28454" height="60" viewBox="0 0 49.28454 60"><defs><style>.cls-1{fill:#00236d;}.cls-2{fill:none;stroke:#00236d;stroke-miterlimit:10;}</style></defs><g id="_デザイン"><polygon class="cls-1" points="31.94037 29.45601 17.34416 29.45601 17.34416 33.4409 24.64227 37.25904 31.94037 33.4409 31.94037 29.45601"/><path class="cls-1" d="M37.59155,17.33317c0,8.75721-6.77169,15.85633-12.94928,15.85633s-12.94928-7.09912-12.94928-15.85633S18.46468,1.47683,24.64227,1.47683s12.94928,7.09912,12.94928,15.85633Z"/><path class="cls-1" d="M14.66184,17.84539c.58327,2.46916-.72323,4.27604-2.08982,4.66354s-2.42126-1.57131-3.00454-4.04047c-.58327-2.46916.17847-4.09525,1.56382-4.39223,2.52361-.54099,2.94726,1.30001,3.53054,3.76916Z"/><path class="cls-1" d="M34.6227,17.84539c-.58327,2.46916.72323,4.27604,2.08982,4.66354s2.42126-1.57131,3.00454-4.04047c.58327-2.46916-.17847-4.09525-1.56382-4.39223-2.52361-.54099-2.94726,1.30001-3.53054,3.76916Z"/><polygon class="cls-2" points="24.64227 37.25904 21.28904 41.63339 16.06614 36.1224 17.7209 33.99388 24.64227 37.25904"/><polygon class="cls-2" points="24.64227 37.25904 27.99549 41.63339 33.21839 36.1224 31.56364 33.99388 24.64227 37.25904"/><polygon class="cls-1" points="26.073 43.062 23.21154 43.062 22.3469 40.25339 24.64227 37.25904 26.93764 40.25339 26.073 43.062"/><polygon class="cls-1" points="28.34481 60 20.66611 60 23.21154 43.062 26.073 43.062 28.34481 60"/><path class="cls-1" d="M33.21839,36.1224l9.26513,2.82275c4.04019,1.2309,6.80102,4.95814,6.80102,9.18168v11.87317H0v-11.87317c0-4.22354,2.76082-7.95077,6.80102-9.18168l9.26513-2.82275,8.43932,18.76518,8.71293-18.76518Z"/><path class="cls-1" d="M32.10213,3.89861c1.61821-.00007,4.47005,1.88792,5.6188,5.12434,1.14875,3.23643-.42703,5.54418-.42703,5.54418l-15.50789-5.77253-9.70731,5.77606s-.78047-.85891-1.01336-1.72693c-.48888-1.82218-1.25861-7.41681,8.67543-11.6871,8.66766-3.72592,12.36136,2.74197,12.36136,2.74197Z"/></g></svg>