<?xml version="1.0" encoding="UTF-8"?><svg id="_レイヤー_2" xmlns="http://www.w3.org/2000/svg" width="85.84077" height="50.99996" viewBox="0 0 85.84077 50.99996"><defs><style>.cls-1,.cls-2{fill:#00236d;}.cls-2{stroke:#fff;stroke-miterlimit:10;}.cls-3{fill:#fff;}</style></defs><g id="_デザイン"><rect class="cls-1" x="5.65864" y="1.05679" width="11.08816" height="25.60562" transform="translate(8.43068 -3.74452) rotate(30)"/><rect class="cls-1" x="69.09398" y="1.05679" width="11.08816" height="25.60562" transform="translate(146.20631 -11.45667) rotate(150)"/><path class="cls-1" d="M23.49337,7.39265l-10.23397,18.38787,26.62497,20.30154s4.57617,2.91211,6.65624.83203,1.08164-3.49453,1.08164-3.49453c0,0,2.7457,1.66406,4.32656.0832s1.24805-3.74414,1.24805-3.74414c0,0,2.91211,1.16484,4.49296-.41602s.91523-3.91054.91523-3.91054c0,0,2.91211,1.41445,4.82578-.49922,1.91367-1.91367,1.24805-3.99375,1.24805-3.99375l-21.94545-22.71443s-2.76585-2.6625-7.34202-2.6625-4.70097,1.58086-7.11386,1.58086-4.78417.24961-4.78417.24961Z"/><path class="cls-2" d="M62.682,7.37185s-2.24648.49922-4.74257.49922-2.6625-2.30888-7.82108-2.30888-6.73945,2.30888-10.40038,4.63857c-3.66093,2.32968-10.81639,6.57304-10.81639,6.57304,0,0-.91523,6.73945,5.82421,5.65781,6.73945-1.08164,8.48671-4.90898,12.06444-3.49453,3.57773,1.41445,11.14921,9.31874,13.8117,11.31561,2.6625,1.99687,4.40976,2.91211,6.24023,2.08008,1.83047-.83203,6.15702-6.73945,6.15702-6.73945l-10.31718-18.22146Z"/><path class="cls-1" d="M17.94675,35.99996c-.80322,0-1.56226-.2627-2.19507-.75977-1.54248-1.21289-1.81177-3.4541-.60034-4.99609l4.92212-6.2666c.6792-.86426,1.69971-1.36035,2.80005-1.36035.80347,0,1.56274.2627,2.19604.75977.74731.58691,1.22144,1.43066,1.33472,2.37402.11353.94336-.14746,1.875-.73438,2.62207l-4.92261,6.26562c-.67896.86523-1.69995,1.36133-2.80054,1.36133h0Z"/><path class="cls-3" d="M22.874,23.11703c.66064,0,1.32666.21338,1.88672.65332,1.32812,1.04321,1.55908,2.9657.51562,4.29382l-4.92188,6.26624c-.60352.76807-1.50049,1.16907-2.40723,1.16907-.66064,0-1.32666-.21338-1.88672-.65332-1.32812-1.04321-1.55908-2.9657-.51611-4.29382l4.92236-6.26624c.60352-.76807,1.50049-1.16907,2.40723-1.16907M22.874,22.11703c-1.25488,0-2.41895.56543-3.19336,1.55127l-4.92285,6.26624c-1.38184,1.75989-1.07471,4.31592.68506,5.698.71143.55908,1.60107.86694,2.50439.86694,1.25488,0,2.41895-.56543,3.19336-1.55127l4.92236-6.26636c.66943-.85229.9668-1.91443.83789-2.99072-.12939-1.07617-.66992-2.0376-1.52246-2.70715-.71143-.55908-1.60107-.86694-2.50439-.86694h0Z"/><path class="cls-1" d="M24.10081,40.83297c-.80347,0-1.56299-.2627-2.19604-.75977-.74731-.58691-1.22144-1.43066-1.33472-2.37402s.14771-1.875.73486-2.62207l4.92188-6.2666c.67896-.86426,1.69946-1.36035,2.80005-1.36035.80347,0,1.56274.2627,2.19604.75977,1.54272,1.21289,1.81177,3.4541.59985,4.99609l-4.92188,6.2666c-.67896.86426-1.69946,1.36035-2.7998,1.36035h-.00024Z"/><path class="cls-3" d="M29.02732,27.95053c.66064,0,1.32666.21338,1.88672.65332,1.32812,1.04321,1.55908,2.9657.51562,4.29382l-4.92236,6.26624c-.60303.76807-1.5,1.16907-2.40674,1.16907-.66064,0-1.32666-.21338-1.88672-.65332-1.32812-1.04321-1.55908-2.9657-.51611-4.29382l4.92236-6.26624c.60352-.76807,1.50049-1.16907,2.40723-1.16907M29.02732,26.95053c-1.25488,0-2.41895.56543-3.19336,1.55127l-4.92285,6.26624c-1.38184,1.75989-1.07471,4.31592.68506,5.698.71143.55908,1.60107.86694,2.50439.86694,1.25488,0,2.41895-.56543,3.19336-1.55139l4.92236-6.26611c.66943-.85242.9668-1.91455.83789-2.99084-.12939-1.07617-.66992-2.0376-1.52246-2.70715-.71143-.55908-1.60107-.86694-2.50439-.86694h0Z"/><path class="cls-1" d="M30.25315,45.66696c-.80322,0-1.56226-.2627-2.19507-.75977-1.54248-1.21289-1.81177-3.4541-.60034-4.99609l4.92236-6.2666c.6792-.86523,1.69971-1.36035,2.80029-1.36035.80347,0,1.56274.2627,2.1958.75977.74731.58691,1.22144,1.43066,1.33472,2.37402s-.14771,1.875-.73462,2.62207l-4.92212,6.26562c-.67944.86523-1.70044,1.36133-2.80103,1.36133h0Z"/><path class="cls-3" d="M35.18064,32.78402c.66064,0,1.32666.21338,1.88672.65332,1.32812,1.04321,1.55908,2.9657.51562,4.29382l-4.92236,6.26624c-.60303.76807-1.5,1.16907-2.40674,1.16907-.66064,0-1.32666-.21338-1.88672-.65332-1.32812-1.04321-1.55908-2.9657-.51611-4.29382l4.92236-6.26624c.60352-.76807,1.50049-1.16907,2.40723-1.16907M35.18064,31.78402c-1.25488,0-2.41895.56543-3.19336,1.55127l-4.92285,6.26624c-1.38184,1.75989-1.07471,4.31592.68506,5.698.71143.55908,1.60107.86694,2.50439.86694,1.25488,0,2.41895-.56543,3.19336-1.55139l4.92236-6.26611c.66943-.85242.9668-1.91455.83789-2.99084-.12939-1.07617-.66992-2.0376-1.52246-2.70715-.71143-.55908-1.60107-.86694-2.50439-.86694h0Z"/><path class="cls-1" d="M36.40745,50.49996c-.80347,0-1.56299-.2627-2.19604-.75977-.74731-.58691-1.22144-1.43066-1.33472-2.37402-.11353-.94336.14746-1.875.73438-2.62207l4.92236-6.2666c.67896-.86426,1.69946-1.36035,2.7998-1.36035.80347,0,1.56274.2627,2.19604.75977,1.54248,1.21289,1.81177,3.4541.60034,4.99609l-4.92236,6.2666c-.67896.86426-1.69946,1.36035-2.7998,1.36035h0Z"/><path class="cls-3" d="M41.33347,37.61752c.66113,0,1.32715.21338,1.88721.65332,1.32812,1.04321,1.55908,2.9657.51562,4.29382l-4.92236,6.26624c-.60303.76807-1.50049,1.16907-2.40674,1.16907-.66113,0-1.32715-.21338-1.88721-.65332-1.32812-1.04321-1.55908-2.9657-.51562-4.29382l4.92236-6.26624c.60303-.76807,1.50049-1.16907,2.40674-1.16907M41.33347,36.61752c-1.25488,0-2.41895.56543-3.19336,1.55139l-4.92236,6.26611c-.66943.85242-.9668,1.91455-.83789,2.99084.12939,1.07617.66992,2.0376,1.52246,2.70715.71143.55908,1.60107.86694,2.50488.86694,1.25488,0,2.41895-.56543,3.19336-1.55139l4.92236-6.26611c.66943-.85242.9668-1.91455.83789-2.99084-.12939-1.07617-.66992-2.0376-1.52246-2.70715-.71143-.55908-1.60107-.86694-2.50488-.86694h0Z"/></g></svg>