<?xml version="1.0" encoding="UTF-8"?><svg id="_レイヤー_2" xmlns="http://www.w3.org/2000/svg" width="76" height="76" viewBox="0 0 76 76"><defs><style>.cls-1{fill:#00236d;}</style></defs><g id="design"><rect class="cls-1" x="62" y="7" width="9" height="68"/><rect class="cls-1" width="5" height="75"/><rect class="cls-1" x="6" y="5" width="1" height="3" transform="translate(13) rotate(90)"/><rect class="cls-1" x="11" y="5" width="1" height="3" transform="translate(18 -5) rotate(90)"/><rect class="cls-1" x="16" y="5" width="1" height="3" transform="translate(23 -10) rotate(90)"/><rect class="cls-1" x="21" y="5" width="1" height="3" transform="translate(28 -15) rotate(90)"/><rect class="cls-1" x="26" y="5" width="1" height="3" transform="translate(33 -20) rotate(90)"/><rect class="cls-1" x="31" y="5" width="1" height="3" transform="translate(38 -25) rotate(90)"/><rect class="cls-1" x="36" y="5" width="1" height="3" transform="translate(43 -30) rotate(90)"/><rect class="cls-1" x="41" y="5" width="1" height="3" transform="translate(48 -35) rotate(90)"/><rect class="cls-1" x="46" y="5" width="1" height="3" transform="translate(53 -40) rotate(90)"/><rect class="cls-1" x="51" y="5" width="1" height="3" transform="translate(58 -45) rotate(90)"/><rect class="cls-1" x="56" y="5" width="1" height="3" transform="translate(63 -50) rotate(90)"/><rect class="cls-1" x="61" y="5" width="1" height="3" transform="translate(68 -55) rotate(90)"/><rect class="cls-1" x="66" y="5" width="1" height="3" transform="translate(73 -60) rotate(90)"/><rect class="cls-1" x="71" y="5" width="1" height="3" transform="translate(78 -65) rotate(90)"/><rect class="cls-1" x="6" y="37" width="1" height="3" transform="translate(45 32) rotate(90)"/><rect class="cls-1" x="11" y="37" width="1" height="3" transform="translate(50 27) rotate(90)"/><rect class="cls-1" x="16" y="37" width="1" height="3" transform="translate(55 22) rotate(90)"/><rect class="cls-1" x="21" y="37" width="1" height="3" transform="translate(60 17) rotate(90)"/><rect class="cls-1" x="26" y="37" width="1" height="3" transform="translate(65 12) rotate(90)"/><rect class="cls-1" x="31" y="37" width="1" height="3" transform="translate(70 7) rotate(90)"/><rect class="cls-1" x="36" y="37" width="1" height="3" transform="translate(75 2) rotate(90)"/><rect class="cls-1" x="41" y="37" width="1" height="3" transform="translate(80 -3) rotate(90)"/><rect class="cls-1" x="46" y="37" width="1" height="3" transform="translate(85 -8) rotate(90)"/><rect class="cls-1" x="51" y="37" width="1" height="3" transform="translate(90 -13) rotate(90)"/><rect class="cls-1" x="56" y="37" width="1" height="3" transform="translate(95 -18) rotate(90)"/><rect class="cls-1" x="61" y="37" width="1" height="3" transform="translate(100 -23) rotate(90)"/><rect class="cls-1" x="66" y="37" width="1" height="3" transform="translate(105 -28) rotate(90)"/><rect class="cls-1" x="71" y="37" width="1" height="3" transform="translate(110 -33) rotate(90)"/><rect class="cls-1" x="10" y="55" width="9" height="20"/><rect class="cls-1" x="23" y="46" width="9" height="29"/><rect class="cls-1" x="36" y="50" width="9" height="25"/><rect class="cls-1" x="49" y="48" width="9" height="27"/><path class="cls-1" d="M50,10.60083l1.91937,2.39917h-.91937v21h-2V13h-.91937l1.91937-2.39917M50,9l-4,5h2v21h4V14h2l-4-5h0Z"/><rect class="cls-1" x="35.5" y="35.5" width="5" height="76" transform="translate(111.5 35.5) rotate(90)"/></g></svg>