<?xml version="1.0" encoding="UTF-8"?><svg id="_レイヤー_2" xmlns="http://www.w3.org/2000/svg" width="58.15125" height="70" viewBox="0 0 58.15125 70"><defs><style>.cls-1{fill:#00236d;}.cls-2{stroke:#fff;}.cls-2,.cls-3{fill:none;stroke-miterlimit:10;}.cls-3{stroke:#00236d;}</style></defs><g id="_デザイン"><rect class="cls-1" x="27.93954" y="53.26907" width="2.27211" height="14.7687" transform="translate(89.72901 31.57782) rotate(90)"/><rect class="cls-1" x="27.93954" y="56.67723" width="2.27211" height="14.7687" transform="translate(93.13717 34.98598) rotate(90)"/><path class="cls-1" d="M33.87797,65.19763c0,2.65228-2.15009,4.80237-4.80237,4.80237s-4.80237-2.15009-4.80237-4.80237h9.60474Z"/><path class="cls-1" d="M48.69426,34.28573c0-11.25648-9.48006-20.29875-20.89175-19.57836-9.50796.60021-17.34191,8.15623-18.25225,17.63952-.66133,6.88926,2.24573,13.13126,7.08716,17.1046,1.66294,1.36477,2.62887,3.39994,2.62888,5.55121v.0037c0,1.86386,1.51096,3.37481,3.37482,3.37481h12.869c1.86386,0,3.37482-1.51096,3.37482-3.37482h0c0-2.10926.8952-4.14949,2.53393-5.47745,4.43737-3.59586,7.27539-9.08664,7.27539-15.24321Z"/><line class="cls-3" x1="29.07562" y1="9.82957" x2="29.07562"/><line class="cls-3" x1="21.05341" y1="11.24411" x2="17.6915" y2="2.00733"/><line class="cls-3" x1="13.99879" y1="15.31709" x2="7.68046" y2="7.7872"/><line class="cls-3" x1="8.76266" y1="21.55727" x2=".25" y2="16.64248"/><line class="cls-3" x1="49.38858" y1="21.55727" x2="57.90125" y2="16.64248"/><line class="cls-3" x1="44.15246" y1="15.31709" x2="50.47078" y2="7.7872"/><line class="cls-3" x1="37.09784" y1="11.24411" x2="40.45975" y2="2.00733"/><path class="cls-2" d="M31.51219,41.15166c0,1.34568-1.09089,2.43656-2.43656,2.43656s-2.43656-1.09089-2.43656-2.43656,2.43656-3.66526,2.43656-3.66526c0,0,2.43656,2.31958,2.43656,3.66526Z"/><path class="cls-2" d="M29.07562,37.4864c-2.90719-3.97237-11.02906-.96224-6.09346,6.64855,4.46907,6.89138,1.29106,14.80681,1.29106,14.80681"/><path class="cls-2" d="M29.07562,37.4864c2.90719-3.97237,11.02906-.96224,6.09346,6.64855-4.46907,6.89138-1.29106,14.80681-1.29106,14.80681"/></g></svg>