<?xml version="1.0" encoding="UTF-8"?><svg id="_レイヤー_2" xmlns="http://www.w3.org/2000/svg" width="286.06297" height="40" viewBox="0 0 286.06297 40"><defs><style>.cls-1{fill:#fff;}</style></defs><g id="_デザイン"><path class="cls-1" d="M57.07486,27.31879c-1.85454,0-3.24441-.33256-4.13123-.98849-.87639-.64827-1.32076-1.65475-1.32076-2.9915v-2.084h1.48656v2.03403c0,.92703.3473,1.60957,1.03233,2.02828.66722.40818,1.759.61515,3.24489.61515,1.49,0,2.48404-.25483,3.03879-.77884.54871-.51846.8269-1.50676.8269-2.93712v-8.80735h1.48656v9.26876c0,1.65379-.43547,2.8525-1.29434,3.56299-.86538.71547-2.33547,1.07809-4.36969,1.07809Z"/><path class="cls-1" d="M73.19764,26.95713l-1.38451-2.7068h-5.76177l-1.37207,2.7068h-1.50934l5.30045-10.42974h.91171l5.34937,10.42974h-1.53385ZM66.66105,23.0633h4.52927l-2.25114-4.43431-2.27813,4.43431Z"/><path class="cls-1" d="M76.1227,26.95713v-10.42974h7.63478c1.06526,0,1.90345.2533,2.49141.753.58231.4951.87754,1.20311.87754,2.10429,0,.85351-.29446,1.56075-.87514,2.10161-.58289.54297-1.36317.81828-2.31901.81828h-6.36045v4.65257h-1.44913ZM77.57183,20.96782h6.18565c.5893,0,1.05167-.1344,1.37417-.39938.32902-.27053.49587-.66033.49587-1.15869,0-.48898-.15996-.87419-.47548-1.14471-.31045-.26612-.75443-.4011-1.3197-.4011h-6.26051v3.10388Z"/><path class="cls-1" d="M95.71484,26.95713l-1.38461-2.7068h-5.76177l-1.37216,2.7068h-1.50934l5.30064-10.42974h.91162l5.34937,10.42974h-1.53375ZM89.17816,23.0633h4.52927l-2.25114-4.43431-2.27813,4.43431Z"/><polygon class="cls-1" points="106.98479 26.95713 100.06386 19.32111 100.06386 26.95713 98.63962 26.95713 98.63962 16.52739 99.35241 16.52739 106.28579 24.18868 106.28579 16.52739 107.69758 16.52739 107.69758 26.95713 106.98479 26.95713"/><path class="cls-1" d="M221.3362,27.28721c-2.02216,0-3.71405-.67488-5.02878-2.00626-1.31549-1.33157-1.98233-3.04472-1.98233-5.09215,0-2.05528.66895-3.77264,1.98827-5.1044,1.31932-1.33138,3.00911-2.00646,5.02284-2.00646,1.24753,0,2.40086.27665,3.42802.82269.99538.52957,1.82189,1.28811,2.45791,2.25554l-1.24542.88816c-.43824-.78612-1.06124-1.41352-1.85387-1.8665-.82824-.47309-1.7658-.71317-2.78664-.71317-1.57089,0-2.8906.54661-3.92216,1.62469-1.03022,1.07656-1.55271,2.4558-1.55271,4.09945,0,1.64384.52248,3.02098,1.55271,4.09352,1.03156,1.07388,2.35127,1.61838,3.92216,1.61838,1.09723,0,2.08668-.27455,2.94076-.81579.82115-.52019,1.51384-1.28448,2.06006-2.27296l1.19239.88893c-.61572,1.13342-1.45889,2.01967-2.5075,2.63501-1.07541.63142-2.31547.95134-3.68571.95134Z"/><path class="cls-1" d="M237.2236,26.92555l-1.38461-2.7068h-5.76186l-1.37216,2.7068h-1.50925l5.30064-10.42974h.91152l5.34947,10.42974h-1.53375ZM230.68692,23.03173h4.52927l-2.25114-4.43431-2.27813,4.43431Z"/><path class="cls-1" d="M239.73916,26.92555v-10.42974h7.63468c1.06526,0,1.90345.2533,2.49141.753.58222.4951.87744,1.20311.87744,2.10429,0,.85351-.29446,1.56075-.87514,2.10161-.58279.54297-1.36297.81828-2.31891.81828h-6.36054v4.65257h-1.44894ZM241.18809,20.93624h6.18574c.5893,0,1.05167-.1344,1.37427-.39938.32892-.27053.49587-.66033.49587-1.15869,0-.48898-.16006-.87419-.47558-1.14471-.31054-.26612-.75453-.4011-1.3197-.4011h-6.2606v3.10388Z"/><rect class="cls-1" x="252.05077" y="16.47073" width="1.47402" height="10.45482"/><polygon class="cls-1" points="259.46718 26.92555 259.46718 17.7575 254.97678 17.7575 254.97678 16.49581 265.40671 16.49581 265.40671 17.7575 260.90367 17.7575 260.90367 26.92555 259.46718 26.92555"/><path class="cls-1" d="M273.45388,26.92555l-1.38461-2.7068h-5.76186l-1.37216,2.7068h-1.50925l5.30064-10.42974h.91152l5.34947,10.42974h-1.53375ZM266.91719,23.03173h4.52927l-2.25114-4.43431-2.27813,4.43431Z"/><polygon class="cls-1" points="276.70595 26.92555 276.70595 16.49581 278.15489 16.49581 278.15489 25.61389 286.06297 25.61389 286.06297 26.92555 276.70595 26.92555"/><path class="cls-1" d="M132.92074,27.29079c-1.83443,0-3.36464-.52574-4.54813-1.56285-1.17908-1.0331-1.7769-2.36256-1.7769-3.95146,0-1.5887.59792-2.92257,1.77728-3.96428,1.18348-1.04516,2.7136-1.57492,4.54774-1.57492,1.1427,0,2.19303.21692,3.12188.64463.88979.40972,1.62393.99002,2.18394,1.72578l-1.13993.79569c-.44236-.578-1.01998-1.03233-1.71851-1.35149-.73088-.33352-1.55424-.50276-2.44738-.50276-1.3848,0-2.54875.40167-3.45941,1.19354-.91516.79607-1.37915,1.80849-1.37915,3.00892,0,1.20062.46619,2.21304,1.38566,3.00911.91439.79186,2.07615,1.19334,3.4529,1.19334.96149,0,1.82228-.19299,2.55833-.5736.70839-.36664,1.3421-.93526,1.88469-1.69132l1.15553.79933c-.58652.89161-1.3556,1.5843-2.28751,2.05987-.96484.49281-2.07883.74247-3.31104.74247Z"/><polygon class="cls-1" points="143.79342 26.95402 143.79342 17.78597 139.30301 17.78597 139.30301 16.52427 149.73314 16.52427 149.73314 17.78597 145.2301 17.78597 145.2301 26.95402 143.79342 26.95402"/><rect class="cls-1" x="151.11583" y="16.49919" width="1.47421" height="10.45482"/><polygon class="cls-1" points="159.20704 26.95402 153.96757 16.52427 155.48993 16.52427 159.56334 24.63262 163.57309 16.52427 165.15758 16.52427 159.93046 26.95402 159.20704 26.95402"/><path class="cls-1" d="M172.51858,26.95402l-1.38461-2.7068h-5.76177l-1.37216,2.7068h-1.50934l5.30064-10.42974h.91162l5.34937,10.42974h-1.53375ZM165.98189,23.06019h4.52927l-2.25114-4.43431-2.27813,4.43431Z"/><polygon class="cls-1" points="175.86702 26.95402 175.86702 17.78597 171.37662 17.78597 171.37662 16.52427 181.80656 16.52427 181.80656 17.78597 177.30352 17.78597 177.30352 26.95402 175.86702 26.95402"/><rect class="cls-1" x="183.22957" y="16.49919" width="1.47402" height="10.45482"/><path class="cls-1" d="M190.15304,26.33003c-1.53295-.74194-2.59784-1.7988-3.16513-3.14106-.56519-1.33774-.53185-2.67668.09892-3.97995.63399-1.3099,1.66075-2.16569,3.0518-2.54395,1.39661-.37966,2.88536-.19413,4.42541.55125,1.55347.75187,2.63049,1.80622,3.2012,3.13377.56797,1.32233.53274,2.66036-.10438,3.97673-.63414,1.31021-1.66432,2.16863-3.06221,2.55177-1.40313.38469-2.89878.20011-4.44561-.54856ZM194.04053,18.29796c-1.18266-.57241-2.32149-.71931-3.38489-.43673-1.06911.2843-1.85761.93725-2.34337,1.9409-.48584,1.00381-.50873,2.02731-.06834,3.04201.43797,1.00924,1.25973,1.81125,2.44255,2.38373,1.18945.57569,2.33349.72512,3.40013.4443,1.07243-.28231,1.86274-.93457,2.34866-1.93854.48256-.99702.50114-2.02046.05563-3.04192-.44347-1.016-1.26786-1.82142-2.45036-2.39375Z"/><polygon class="cls-1" points="208.3903 26.95402 201.46937 19.318 201.46937 26.95402 200.04532 26.95402 200.04532 16.52427 200.75792 16.52427 207.69149 24.18557 207.69149 16.52427 209.10309 16.52427 209.10309 26.95402 208.3903 26.95402"/><path class="cls-1" d="M124.84284,26.98513l-1.4788-3.70467h-6.76614l-1.42903,3.70467h-1.58612l5.85491-13.54818h1.28371l5.73266,13.54818h-1.6112ZM117.27402,21.89394h5.4405l-2.63548-6.46067-2.80502,6.46067Z"/><path class="cls-1" d="M43.10735,1.2984l-.97556-.18646-6.42276,33.60322V0H0v40h35.70903v-.00022l.00112.00022L43.10735,1.2984ZM34.71562.99341v37.12277L10.49096,4.59824l-.00107.00078-.55952-.77348-.65212,1.95637h.00015L.99341,30.46999V.99341h33.72221ZM.99341,33.59229L10.26099,5.97621l23.87226,33.03038H.99341v-5.41431Z"/></g></svg>