<?xml version="1.0" encoding="UTF-8"?><svg xmlns="http://www.w3.org/2000/svg" width="259.62924" height="80" viewBox="0 0 259.62924 80"><defs><style>.cls-1{fill:#00236d;}</style></defs><g id="_デザイン"><path class="cls-1" d="M84.7549,3.90741l-1.91808-.3666-12.62802,66.0685V1.35457H0v78.64543h70.2088v-.00043l.00219.00043L84.7549,3.90741ZM68.25562,3.30774v72.9884L20.62665,10.39532l-.0021.00153-1.10009-1.52077-1.28215,3.84648h.00029L1.95318,61.2627V3.30774h66.30244ZM1.95318,67.40156L20.1745,13.10462l46.93611,64.94221H1.95318v-10.64526Z"/><path class="cls-1" d="M116.15726,22.34171c-2.97872,0-5.21111-.53415-6.63551-1.58769-1.40764-1.04124-2.12138-2.65783-2.12138-4.80488v-3.34727h2.38768v3.26701c0,1.48898.55783,2.58526,1.65811,3.25779,1.07168.65562,2.82527.98804,5.21188.98804,2.39322,0,3.98982-.4093,4.88084-1.25096.88133-.83274,1.32815-2.42012,1.32815-4.71755V0h2.38768v14.8873c0,2.65629-.69944,4.58163-2.07894,5.72281-1.38996,1.14917-3.75119,1.7316-7.01851,1.7316Z"/><path class="cls-1" d="M142.05335,21.76082l-2.22378-4.34761h-9.25444l-2.20379,4.34761h-2.42428l8.51348-16.75205h1.46437l8.59205,16.75205h-2.46364ZM131.55441,15.50663h7.27482l-3.61573-7.1223-3.65909,7.1223Z"/><path class="cls-1" d="M146.75153,21.76082V5.00876h12.26283c1.711,0,3.05729.40684,4.00166,1.20945.9353.79523,1.40948,1.93241,1.40948,3.37987,0,1.37089-.47295,2.50684-1.40564,3.37557-.93622.87211-2.18949,1.31431-3.72475,1.31431h-10.21603v7.47286h-2.32756ZM149.07909,12.1409h9.93527c.94652,0,1.68917-.21587,2.20717-.64147.52846-.43452.79646-1.06061.79646-1.86107,0-.78539-.25693-1.4041-.76371-1.83862-.49863-.42744-1.21175-.64424-2.11968-.64424h-10.05551v4.98539Z"/><path class="cls-1" d="M178.22006,21.76082l-2.22393-4.34761h-9.25444l-2.20394,4.34761h-2.42428l8.51379-16.75205h1.46422l8.59205,16.75205h-2.46348ZM167.72096,15.50663h7.27482l-3.61573-7.1223-3.65909,7.1223Z"/><polygon class="cls-1" points="196.32163 21.76082 185.20536 9.49599 185.20536 21.76082 182.91777 21.76082 182.91777 5.00876 184.06264 5.00876 195.1989 17.31419 195.1989 5.00876 197.4665 5.00876 197.4665 21.76082 196.32163 21.76082"/><path class="cls-1" d="M137.26661,50.92139c-2.94643,0-5.40423-.84443-7.30511-2.51022-1.89382-1.65934-2.85402-3.7947-2.85402-6.34675,0-2.55174.96036-4.69418,2.85464-6.36735,1.90089-1.67871,4.35853-2.5296,7.3045-2.5296,1.83539,0,3.5224.34841,5.0143,1.03539,1.42916.65808,2.60832,1.59015,3.5078,2.77192l-1.83093,1.27802c-.71051-.92838-1.63827-1.65811-2.76023-2.17073-1.17393-.53569-2.49639-.80753-3.93093-.80753-2.22424,0-4.09376.64516-5.55644,1.91703-1.46991,1.27864-2.21517,2.90476-2.21517,4.83287,0,1.92841.74879,3.55454,2.22562,4.83317,1.46868,1.27187,3.33467,1.91673,5.54599,1.91673,1.54433,0,2.9269-.30997,4.10914-.92131,1.1378-.58889,2.15566-1.5022,3.02715-2.71657l1.85599,1.28386c-.94206,1.43209-2.17734,2.54467-3.67416,3.30853-1.54971.79154-3.33897,1.19253-5.31812,1.19253Z"/><polygon class="cls-1" points="154.7301 50.38048 154.7301 35.65493 147.5177 35.65493 147.5177 33.62842 164.27037 33.62842 164.27037 35.65493 157.03767 35.65493 157.03767 50.38048 154.7301 50.38048"/><rect class="cls-1" x="166.49122" y="33.58814" width="2.36785" height="16.79234"/><polygon class="cls-1" points="179.48716 50.38048 171.07162 33.62842 173.51681 33.62842 180.05944 46.65189 186.49983 33.62842 189.04481 33.62842 180.6491 50.38048 179.48716 50.38048"/><path class="cls-1" d="M200.86789,50.38048l-2.22393-4.34761h-9.25444l-2.20394,4.34761h-2.42428l8.51379-16.75205h1.46422l8.59205,16.75205h-2.46348ZM190.3688,44.12629h7.27482l-3.61573-7.1223-3.65909,7.1223Z"/><polygon class="cls-1" points="206.24611 50.38048 206.24611 35.65493 199.03371 35.65493 199.03371 33.62842 215.78607 33.62842 215.78607 35.65493 208.55337 35.65493 208.55337 50.38048 206.24611 50.38048"/><rect class="cls-1" x="218.07168" y="33.58814" width="2.36754" height="16.79234"/><path class="cls-1" d="M229.19202,49.37824c-2.46219-1.19169-4.17261-2.88919-5.08378-5.04511-.9078-2.14865-.85425-4.29924.15889-6.39252,1.0183-2.10393,2.66746-3.47848,4.90175-4.08604,2.2432-.60981,4.63441-.3118,7.10801.88541,2.49515,1.20765,4.22504,2.90111,5.1417,5.0334.91227,2.1239.85568,4.27302-.16765,6.38734-1.01854,2.10444-2.6732,3.48322-4.91847,4.0986-2.25368.61788-4.65596.32141-7.14046-.88109ZM235.43605,36.47729c-1.89957-.91939-3.72873-1.15534-5.43675-.70147-1.71718.45664-2.98365,1.50539-3.76388,3.11743-.78035,1.6123-.81712,3.25622-.10977,4.88601.70346,1.62103,2.02335,2.9092,3.92317,3.82871,1.91047.92466,3.748,1.16467,5.46122.71362,1.72251-.45343,2.9919-1.50108,3.77237-3.11364.77507-1.6014.80492-3.24523.08936-4.88588-.71229-1.63187-2.03641-2.92553-3.93573-3.8448Z"/><polygon class="cls-1" points="258.48437 50.38048 247.3681 38.11565 247.3681 50.38048 245.08082 50.38048 245.08082 33.62842 246.22538 33.62842 257.36195 45.93385 257.36195 33.62842 259.62924 33.62842 259.62924 50.38048 258.48437 50.38048"/><path class="cls-1" d="M117.15253,80c-3.24795,0-5.96544-1.08398-8.07712-3.22242-2.11292-2.13875-3.18398-4.89037-3.18398-8.17891,0-3.30115,1.07445-6.05953,3.19352-8.19859,2.11907-2.13844,4.83317-3.22273,8.06759-3.22273,2.00375,0,3.85621.44436,5.50601,1.32138,1.59876.85058,2.92629,2.06894,3.94785,3.62281l-2.00037,1.42655c-.7039-1.26265-1.70454-2.27037-2.97764-2.99794-1.3303-.75986-2.83619-1.14548-4.47585-1.14548-2.52314,0-4.64282.87795-6.2997,2.60955-1.65472,1.72914-2.49393,3.94446-2.49393,6.58446,0,2.6403.8392,4.85224,2.49393,6.57493,1.65688,1.72484,3.77656,2.5994,6.2997,2.5994,1.76235,0,3.35158-.44097,4.72339-1.31031,1.31892-.83551,2.4315-2.0631,3.30883-3.65079l1.91519,1.42778c-.98896,1.82047-2.34325,3.24395-4.02749,4.2323-1.7273,1.01418-3.71906,1.52803-5.91992,1.52803Z"/><path class="cls-1" d="M142.67056,79.41911l-2.22393-4.34761h-9.25459l-2.20394,4.34761h-2.42412l8.51379-16.75205h1.46407l8.59221,16.75205h-2.46348ZM132.17147,73.16492h7.27482l-3.61573-7.1223-3.65909,7.1223Z"/><path class="cls-1" d="M146.711,79.41911v-16.75205h12.26268c1.711,0,3.05729.40684,4.00166,1.20945.93515.79523,1.40933,1.93241,1.40933,3.37987,0,1.37089-.47295,2.50684-1.40564,3.37557-.93607.87211-2.18918,1.31431-3.72459,1.31431h-10.21618v7.47286h-2.32725ZM149.03826,69.79919h9.93542c.94652,0,1.68917-.21587,2.20733-.64147.52831-.43452.79646-1.06061.79646-1.86107,0-.78539-.25708-1.4041-.76386-1.83862-.49879-.42744-1.21191-.64424-2.11968-.64424h-10.05566v4.98539Z"/><rect class="cls-1" x="166.48568" y="62.62677" width="2.36754" height="16.79234"/><polygon class="cls-1" points="178.39777 79.41911 178.39777 64.69356 171.18537 64.69356 171.18537 62.66706 187.93773 62.66706 187.93773 64.69356 180.70504 64.69356 180.70504 79.41911 178.39777 79.41911"/><path class="cls-1" d="M200.86293,79.41911l-2.22393-4.34761h-9.25459l-2.20394,4.34761h-2.42412l8.51379-16.75205h1.46407l8.59221,16.75205h-2.46348ZM190.36384,73.16492h7.27482l-3.61573-7.1223-3.65909,7.1223Z"/><polygon class="cls-1" points="206.08636 79.41911 206.08636 62.66706 208.41361 62.66706 208.41361 77.31234 221.11542 77.31234 221.11542 79.41911 206.08636 79.41911"/><path class="cls-1" d="M124.29204,50.43045l-2.37523-5.95037h-10.86765l-2.29527,5.95037h-2.54759l9.40404-21.76082h2.06187l9.20769,21.76082h-2.58787ZM112.13515,42.25307h8.73843l-4.23306-10.37701-4.50537,10.37701Z"/></g></svg>